<?xml version="1.0" encoding="UTF-8"?>
<svg width="1279px" height="177px" viewBox="0 0 1279 177" version="1.1" xmlns="http://www.w3.org/2000/svg" xmlns:xlink="http://www.w3.org/1999/xlink">
    <title>Frame</title>
    <defs>
        <linearGradient x1="11.6294834%" y1="2.2230746%" x2="79.2407886%" y2="100%" id="linearGradient-1">
            <stop stop-color="#00B7EB" offset="0%"></stop>
            <stop stop-color="#D2FAFF" offset="100%"></stop>
        </linearGradient>
    </defs>
    <g id="Frame" stroke="none" fill="none">
        <text id="Python-AI-SDK" font-family="SFCompact-Semibold, SF Compact" font-size="198.923363" font-weight="500" letter-spacing="-7.68567562" fill="#000000">
            <tspan x="158" y="141">Python AI SDK</tspan>
        </text>
        <path d="M75.443793,18.7035976 C77.5361754,13.4145903 86.2098842,13.4145903 88.3022667,18.7035976 L104.829323,60.6365489 L146.630884,77.2155526 C149.267102,78.2604089 151,80.8216939 151,83.6603744 C151,86.4990549 149.257884,89.0603399 146.621667,90.1051963 L104.820105,106.6842 L88.2930491,148.617151 C87.2514667,151.261655 84.698207,153 81.8684211,153 C79.0386351,153 76.4853754,151.261655 75.443793,148.617151 L58.9167368,106.6842 L17.1151754,90.1051963 C14.4697404,89.0603399 12.7368421,86.4990549 12.7368421,83.6603744 C12.7368421,80.8216939 14.4789579,78.2604089 17.1151754,77.2155526 L58.9167368,60.6365489 Z M21.9339816,7.88103821 C23.214315,4.03965393 29.5225271,4.03965393 30.8028605,7.88103821 L34.7373157,19.7723822 L46.5406813,23.7361635 C48.4471632,24.3763942 49.7368421,26.1746893 49.7368421,28.1989482 C49.7368421,30.2232071 48.4471632,32.0215022 46.5406813,32.6617329 L34.7373157,36.6255142 L30.8028605,48.5168582 C30.158021,50.4375504 28.3730307,51.7368421 26.3637483,51.7368421 C24.3544659,51.7368421 22.5601301,50.4375504 21.9246361,48.5168582 L17.9995264,36.6255142 L6.19616077,32.6617329 C4.28967891,32.0215022 3,30.2232071 3,28.1989482 C3,26.1746893 4.28967891,24.3763942 6.19616077,23.7361635 L17.9995264,19.7723822 Z" id="Combined-Shape" fill="url(#linearGradient-1)" fill-rule="nonzero"></path>
    </g>
</svg>