<?xml version="1.0" encoding="UTF-8"?>
<svg width="188px" height="188px" viewBox="0 0 188 188" version="1.1" xmlns="http://www.w3.org/2000/svg" xmlns:xlink="http://www.w3.org/1999/xlink">
    <title>Frame 2</title>
    <defs>
        <linearGradient x1="11.6294834%" y1="2.2230746%" x2="79.2407886%" y2="100%" id="linearGradient-1">
            <stop stop-color="#00B7EB" offset="0%"></stop>
            <stop stop-color="#D2FAFF" offset="100%"></stop>
        </linearGradient>
    </defs>
    <g id="Frame-2" stroke="none" fill="none" fill-rule="nonzero">
        <path d="M92.5058,37.7009965 C94.458,32.7663345 102.5506,32.7663345 104.5028,37.7009965 L119.9226,76.8245837 L158.9236,92.2928509 C161.3832,93.2677055 163,95.6573932 163,98.3058918 C163,100.95439 161.3746,103.344078 158.915,104.318933 L119.914,119.7872 L104.4942,158.910787 C103.5224,161.378118 101.1402,163 98.5,163 C95.8598,163 93.4776,161.378118 92.5058,158.910787 L77.086,119.7872 L38.085,104.318933 C35.6168,103.344078 34,100.95439 34,98.3058918 C34,95.6573932 35.6254,93.2677055 38.085,92.2928509 L77.086,76.8245837 Z M42.420116,27.6506849 C43.5980804,24.1164384 49.4019196,24.1164384 50.579884,27.6506849 L54.19976,38.5912571 L65.0593881,42.2381144 C66.8134373,42.8271555 68,44.481668 68,46.3440774 C68,48.2064867 66.8134373,49.8609992 65.0593881,50.4500403 L54.19976,54.0968977 L50.579884,65.0374698 C49.9866027,66.8045931 48.3443311,68 46.4957009,68 C44.6470706,68 42.9962008,66.8045931 42.4115177,65.0374698 L38.80024,54.0968977 L27.9406119,50.4500403 C26.1865627,49.8609992 25,48.2064867 25,46.3440774 C25,44.481668 26.1865627,42.8271555 27.9406119,42.2381144 L38.80024,38.5912571 Z" id="Combined-Shape-Copy" fill="url(#linearGradient-1)"></path>
    </g>
</svg>